<svg width="586" height="571" viewBox="0 0 586 571" fill="none" xmlns="http://www.w3.org/2000/svg">
<g clip-path="url(#clip0_421_4)">
<path d="M540.759 74.5821V343.744C540.759 352.543 537.265 360.982 531.045 367.205C524.824 373.428 516.387 376.926 507.589 376.93H34.1706C25.3719 376.926 16.9348 373.428 10.7146 367.205C4.49428 360.982 0.999999 352.543 1 343.744V74.5821C1 73.7898 1 73.0872 1.10464 72.2501C1.6874 63.8771 5.42403 56.0367 11.5607 50.3106C17.6974 44.5845 25.7774 41.3989 34.1706 41.3965H507.589C515.991 41.4 524.08 44.5939 530.218 50.3325C536.356 56.0711 540.086 63.9262 540.655 72.3099C540.729 73.0274 540.759 73.8048 540.759 74.5821Z" fill="white" stroke="#263238" stroke-width="1.10311" stroke-linecap="round" stroke-linejoin="round"/>
<path d="M17.1445 84.6865H526.305V333.324C526.305 341.571 523.029 349.479 517.198 355.31C511.367 361.141 503.458 364.417 495.212 364.417H48.2523C40.0059 364.417 32.0974 361.141 26.2663 355.31C20.4353 349.479 17.1595 341.571 17.1595 333.324V84.6865H17.1445Z" fill="white"/>
<path d="M540.654 72.3107H1.10352C1.68628 63.9376 5.4229 56.0972 11.5596 50.3712C17.6963 44.6451 25.7762 41.4595 34.1695 41.457H507.588C515.981 41.4595 524.06 44.6451 530.198 50.3712C536.333 56.0972 540.07 63.9376 540.654 72.3107Z" fill="#89B9F6" stroke="#263238" stroke-width="1.10311" stroke-miterlimit="10"/>
<path d="M67.4009 56.824C67.4009 57.9859 67.0563 59.1217 66.4108 60.0878C65.7653 61.0539 64.8478 61.8069 63.7743 62.2515C62.7008 62.6962 61.5196 62.8125 60.38 62.5858C59.2404 62.3592 58.1936 61.7996 57.3721 60.978C56.5505 60.1564 55.9909 59.1097 55.7643 57.9701C55.5376 56.8305 55.6539 55.6493 56.0986 54.5758C56.5432 53.5023 57.2962 52.5848 58.2623 51.9393C59.2284 51.2938 60.3642 50.9492 61.5261 50.9492C63.0842 50.9492 64.5785 51.5682 65.6802 52.6699C66.7819 53.7716 67.4009 55.2659 67.4009 56.824Z" fill="#263238"/>
<path d="M92.2455 56.824C92.2455 57.9859 91.901 59.1217 91.2555 60.0878C90.6099 61.0539 89.6924 61.8069 88.619 62.2515C87.5455 62.6962 86.3643 62.8125 85.2247 62.5858C84.0851 62.3592 83.0383 61.7996 82.2167 60.978C81.3951 60.1564 80.8356 59.1097 80.6089 57.9701C80.3823 56.8305 80.4986 55.6493 80.9432 54.5758C81.3879 53.5023 82.1409 52.5848 83.107 51.9393C84.0731 51.2938 85.2089 50.9492 86.3708 50.9492C87.9289 50.9492 89.4231 51.5682 90.5249 52.6699C91.6266 53.7716 92.2455 55.2659 92.2455 56.824Z" fill="#263238"/>
<path d="M111.215 62.6987C114.46 62.6987 117.09 60.0685 117.09 56.824C117.09 53.5794 114.46 50.9492 111.215 50.9492C107.971 50.9492 105.341 53.5794 105.341 56.824C105.341 60.0685 107.971 62.6987 111.215 62.6987Z" fill="#263238"/>
<path d="M526.304 84.6865V333.324C526.304 341.571 523.028 349.479 517.197 355.31C511.366 361.141 503.457 364.417 495.211 364.417H48.2524C41.0552 364.416 34.0814 361.918 28.5204 357.349C22.9593 352.78 19.1554 346.424 17.7575 339.364V339.274C17.3775 337.303 17.1873 335.301 17.1895 333.294V84.6865H526.304Z" stroke="#263238" stroke-width="1.10311" stroke-miterlimit="10"/>
<path d="M525.825 123.134C523.645 121.91 521.327 120.951 518.919 120.279L516.123 107.797H504.254L501.489 120.279C499.067 120.939 496.737 121.898 494.553 123.134L483.835 116.273L475.449 124.629L482.19 135.347C480.956 137.532 479.997 139.862 479.335 142.283L466.853 145.048V156.918L479.335 159.713C479.99 162.146 480.949 164.486 482.19 166.679L475.329 177.472L483.73 185.858L494.508 178.996C496.688 180.234 499.013 181.198 501.429 181.867L504.209 194.334H516.034L518.814 181.867C521.223 181.191 523.542 180.228 525.72 178.996L526.273 179.355V122.835L525.825 123.134ZM510.219 166.485C507.185 166.485 504.219 165.585 501.696 163.899C499.174 162.213 497.208 159.817 496.048 157.013C494.887 154.21 494.584 151.125 495.177 148.15C495.77 145.174 497.233 142.441 499.379 140.297C501.526 138.153 504.26 136.693 507.236 136.103C510.212 135.513 513.296 135.819 516.098 136.982C518.901 138.145 521.295 140.113 522.978 142.637C524.662 145.162 525.559 148.128 525.556 151.162C525.556 153.176 525.159 155.169 524.388 157.029C523.617 158.889 522.487 160.579 521.063 162.002C519.638 163.425 517.948 164.553 516.087 165.323C514.226 166.092 512.232 166.487 510.219 166.485Z" fill="#263238"/>
<path d="M311.913 135.167V110.144L285.604 104.299C284.184 99.2152 282.177 94.314 279.624 89.6943L282.808 84.6865H158.587L161.651 89.5597C159.067 94.1591 157.058 99.0592 155.672 104.149L129.347 110.009V135.093L155.672 140.967C157.059 146.096 159.067 151.035 161.651 155.677L147.196 178.413L164.91 196.112L187.631 181.642C192.241 184.235 197.144 186.268 202.236 187.696L208.096 213.931H233.06L238.95 187.637C244.025 186.201 248.912 184.169 253.509 181.582L276.246 196.053L293.945 178.354L279.579 155.617C282.126 151.005 284.132 146.114 285.559 141.042L311.913 135.167ZM220.727 154.989C214.332 154.989 208.081 153.093 202.764 149.54C197.447 145.987 193.302 140.937 190.855 135.029C188.408 129.121 187.768 122.62 189.015 116.348C190.263 110.076 193.342 104.314 197.864 99.7924C202.386 95.2704 208.147 92.191 214.419 90.9434C220.691 89.6958 227.193 90.3361 233.101 92.7833C239.009 95.2306 244.059 99.3748 247.612 104.692C251.165 110.009 253.061 116.261 253.061 122.656C253.063 126.902 252.228 131.108 250.604 135.031C248.979 138.955 246.598 142.52 243.595 145.523C240.592 148.526 237.027 150.908 233.103 152.532C229.179 154.156 224.974 154.991 220.727 154.989Z" fill="#263238"/>
<path d="M145.881 307.001L146.943 287.134L126.359 281.334C125.403 277.252 123.989 273.29 122.143 269.525L134.58 252.065L121.246 237.281L102.62 247.745C99.0596 245.505 95.2524 243.684 91.274 242.319L87.7162 221.212L67.8647 220.3L62.1244 240.944C58.0346 241.861 54.0697 243.266 50.3152 245.129L32.8703 232.707L18.0564 246.026L28.61 264.667C26.3475 268.211 24.5206 272.016 23.1687 275.998L17.1894 276.984V303.892L21.5543 305.117C22.4599 309.213 23.8604 313.184 25.7249 316.942L17.1445 328.975L17.7126 339.275V339.364L26.577 349.185L45.2327 338.647C48.7867 340.933 52.607 342.775 56.6085 344.133L60.1064 364.403L60.2708 365.255L80.1224 366.301L80.6456 364.403L85.8626 345.673C89.9709 344.753 93.9552 343.348 97.7317 341.487L115.147 353.894L129.946 340.59L119.482 321.934C121.724 318.394 123.526 314.594 124.849 310.618L145.881 307.001ZM93.1575 275.983C89.757 272.2 85.3111 269.512 80.3822 268.257C75.4533 267.001 70.2629 267.236 65.4675 268.932C60.6721 270.627 56.4873 273.706 53.4424 277.78C50.3975 281.854 48.6293 286.74 48.3616 291.819C48.0938 296.898 49.3385 301.943 51.9381 306.314C54.5378 310.686 58.3757 314.188 62.9662 316.378C67.5567 318.569 72.6937 319.348 77.7272 318.618C82.7608 317.888 87.4647 315.682 91.2441 312.278C96.2901 307.719 99.3246 301.346 99.6832 294.555C100.042 287.764 97.6954 281.108 93.1575 276.043V275.983Z" fill="#263238"/>
<path d="M304.663 277.388C305.431 274.312 305.837 271.156 305.874 267.985L320.149 260.511L316.203 246.026L300.089 246.773C298.456 244.066 296.515 241.558 294.303 239.299L299.072 223.887L286.067 216.413L275.184 228.282C272.113 227.541 268.97 227.14 265.812 227.086L258.337 212.811L243.867 216.742L244.63 232.871C241.922 234.503 239.414 236.444 237.155 238.656L221.729 233.888L214.254 246.878L226.213 257.746C225.44 260.81 225.043 263.958 225.032 267.118L210.727 274.593L214.673 289.063L230.817 288.3C232.417 291.021 234.351 293.532 236.572 295.774L231.774 311.112L244.794 318.586L255.617 306.806C258.691 307.58 261.849 307.977 265.019 307.987L272.494 322.278L286.964 318.347L286.321 304.564L286.216 302.202C288.962 300.586 291.502 298.644 293.78 296.417L309.192 301.201L315.56 290.079L316.636 288.196L304.663 277.388ZM270.476 286.178C266.765 287.201 262.834 287.099 259.181 285.885C255.528 284.671 252.318 282.4 249.958 279.359C247.597 276.318 246.193 272.645 245.924 268.805C245.654 264.965 246.531 261.132 248.443 257.791C250.355 254.45 253.216 251.752 256.664 250.04C260.111 248.327 263.989 247.677 267.807 248.172C271.624 248.667 275.209 250.284 278.106 252.819C281.003 255.354 283.081 258.692 284.079 262.41C285.408 267.365 284.723 272.644 282.175 277.097C279.627 281.549 275.421 284.814 270.476 286.178Z" fill="#263238"/>
<path d="M470.173 302.86L473.461 282.978L453.341 274.891C452.884 270.654 451.915 266.488 450.456 262.484L464.941 246.355L453.221 229.911L433.25 238.387C429.934 235.729 426.311 233.481 422.457 231.69L421.291 210.03L401.41 206.741L393.263 226.772C389.044 227.268 384.896 228.246 380.9 229.687L364.726 215.202L348.358 226.922L356.848 246.878C354.511 249.795 352.483 252.946 350.794 256.28C350.57 256.744 350.331 257.207 350.122 257.671L328.476 258.866L325.173 278.718L328.431 280.034L345.293 286.835C345.753 291.052 346.722 295.198 348.178 299.182L333.663 315.417L345.398 331.86L365.354 323.339C368.659 326.021 372.278 328.29 376.132 330.096L377.253 351.652L397.12 354.94L405.252 335.059C409.48 334.597 413.636 333.623 417.629 332.159L433.773 346.644L450.216 334.909L441.726 314.938C444.431 311.619 446.715 307.979 448.527 304.101L470.173 302.86ZM414.415 301.963C410.232 304.964 405.254 306.657 400.109 306.828C394.964 306.999 389.884 305.641 385.511 302.925C381.138 300.209 377.669 296.257 375.543 291.569C373.416 286.881 372.727 281.668 373.564 276.588C374.4 271.509 376.724 266.792 380.242 263.034C383.759 259.275 388.313 256.644 393.325 255.474C398.338 254.303 403.586 254.646 408.404 256.457C413.222 258.269 417.395 261.47 420.394 265.653C424.412 271.265 426.036 278.243 424.909 285.052C423.782 291.862 419.997 297.945 414.385 301.963H414.415Z" fill="#263238"/>
<path d="M200.742 155.679H44.4109C33.5875 155.679 24.8135 164.453 24.8135 175.276V391.715C24.8135 402.538 33.5875 411.312 44.4109 411.312H200.742C211.565 411.312 220.339 402.538 220.339 391.715V175.276C220.339 164.453 211.565 155.679 200.742 155.679Z" fill="#89B9F6" stroke="#263238" stroke-width="1.10311" stroke-miterlimit="10"/>
<path opacity="0.2" d="M200.742 155.679H44.4109C33.5875 155.679 24.8135 164.453 24.8135 175.276V391.715C24.8135 402.538 33.5875 411.312 44.4109 411.312H200.742C211.565 411.312 220.339 402.538 220.339 391.715V175.276C220.339 164.453 211.565 155.679 200.742 155.679Z" fill="#231F20"/>
<path d="M238.532 194.59V411.028C238.534 413.603 238.028 416.153 237.044 418.533C236.06 420.912 234.617 423.074 232.797 424.896C230.977 426.717 228.816 428.162 226.438 429.148C224.059 430.133 221.509 430.641 218.935 430.641H62.603C60.0294 430.639 57.4814 430.13 55.1045 429.143C52.7276 428.157 50.5683 426.711 48.7499 424.89C46.9315 423.069 45.4896 420.908 44.5065 418.529C43.5235 416.151 43.0185 413.602 43.0205 411.028V194.59C43.0205 189.395 45.0832 184.412 48.7552 180.737C52.4272 177.063 57.408 174.996 62.603 174.992H218.935C224.132 174.992 229.117 177.057 232.792 180.732C236.467 184.407 238.532 189.392 238.532 194.59Z" fill="white" stroke="#263238" stroke-width="1.10311" stroke-linecap="round" stroke-linejoin="round"/>
<path d="M238.532 194.59V206.175H43.0215V194.59C43.0215 189.395 45.0842 184.412 48.7562 180.737C52.4282 177.063 57.409 174.996 62.604 174.992H218.935C224.132 174.992 229.117 177.057 232.792 180.732C236.467 184.407 238.532 189.392 238.532 194.59Z" fill="#89B9F6" stroke="#263238" stroke-width="1.10311" stroke-miterlimit="10"/>
<path d="M109.511 219.599H61.4062V227.671H109.511V219.599Z" fill="#89B9F6"/>
<path d="M109.511 291.935H61.4062V300.007H109.511V291.935Z" fill="#89B9F6"/>
<path d="M109.511 357.528H61.4062V365.601H109.511V357.528Z" fill="#89B9F6"/>
<path d="M198.021 239.584H61.4062V245.504H198.021V239.584Z" fill="#263238"/>
<path d="M173.386 250.901H61.4062V256.671H173.386V250.901Z" fill="#263238"/>
<path d="M188.05 262.038H61.4062V267.808H188.05V262.038Z" fill="#263238"/>
<path d="M188.05 273.16H61.4062V278.93H188.05V273.16Z" fill="#263238"/>
<path d="M198.021 305.181H61.4062V311.1H198.021V305.181Z" fill="#263238"/>
<path d="M173.386 316.495H61.4062V322.265H173.386V316.495Z" fill="#263238"/>
<path d="M188.05 327.632H61.4062V333.402H188.05V327.632Z" fill="#263238"/>
<path d="M198.021 377.2H61.4062V383.12H198.021V377.2Z" fill="#263238"/>
<path d="M173.386 388.531H61.4062V394.301H173.386V388.531Z" fill="#263238"/>
<path d="M188.05 399.669H61.4062V405.439H188.05V399.669Z" fill="#263238"/>
<path d="M458.887 24.9106V112.389C458.887 115.459 458.282 118.498 457.107 121.334C455.932 124.169 454.21 126.746 452.038 128.915C449.867 131.085 447.29 132.806 444.453 133.979C441.617 135.153 438.577 135.755 435.508 135.754H234.032C230.963 135.755 227.923 135.153 225.086 133.979C222.25 132.806 219.673 131.085 217.501 128.915C215.33 126.746 213.608 124.169 212.433 121.334C211.258 118.498 210.653 115.459 210.653 112.389V24.9106C210.657 18.7113 213.121 12.7669 217.505 8.38328C221.888 3.99965 227.833 1.53521 234.032 1.53125H435.508C441.708 1.53125 447.655 3.99443 452.039 8.37891C456.424 12.7634 458.887 18.71 458.887 24.9106Z" fill="white" stroke="#263238" stroke-width="1.10311" stroke-miterlimit="10"/>
<path d="M458.887 24.9106V26.9137H210.653V24.9106C210.657 18.7113 213.121 12.7669 217.505 8.38328C221.888 3.99965 227.833 1.53521 234.032 1.53125H435.508C441.708 1.53125 447.655 3.99443 452.039 8.37891C456.424 12.7634 458.887 18.71 458.887 24.9106Z" fill="#89B9F6" stroke="#263238" stroke-width="1.10311" stroke-miterlimit="10"/>
<path d="M247.127 18.4085C246.625 18.9111 245.986 19.2537 245.29 19.3928C244.594 19.5319 243.872 19.4614 243.216 19.1901C242.56 18.9188 241.999 18.459 241.604 17.8688C241.21 17.2787 240.999 16.5847 240.999 15.8747C240.999 15.1648 241.21 14.4708 241.604 13.8807C241.999 13.2905 242.56 12.8307 243.216 12.5594C243.872 12.2881 244.594 12.2176 245.29 12.3567C245.986 12.4958 246.625 12.8384 247.127 13.341C247.794 14.0155 248.168 14.926 248.168 15.8747C248.168 16.8235 247.794 17.734 247.127 18.4085Z" fill="#263238"/>
<path d="M263.75 18.4085C263.248 18.9111 262.609 19.2537 261.913 19.3928C261.217 19.5319 260.495 19.4614 259.839 19.1901C259.183 18.9188 258.622 18.459 258.227 17.8688C257.833 17.2787 257.622 16.5847 257.622 15.8747C257.622 15.1648 257.833 14.4708 258.227 13.8807C258.622 13.2905 259.183 12.8307 259.839 12.5594C260.495 12.2881 261.217 12.2176 261.913 12.3567C262.609 12.4958 263.248 12.8384 263.75 13.341C264.417 14.0155 264.791 14.926 264.791 15.8747C264.791 16.8235 264.417 17.734 263.75 18.4085Z" fill="#263238"/>
<path d="M280.373 18.4085C279.871 18.9111 279.232 19.2537 278.536 19.3928C277.84 19.5319 277.118 19.4614 276.462 19.1901C275.806 18.9188 275.245 18.459 274.85 17.8688C274.456 17.2787 274.245 16.5847 274.245 15.8747C274.245 15.1648 274.456 14.4708 274.85 13.8807C275.245 13.2905 275.806 12.8307 276.462 12.5594C277.118 12.2881 277.84 12.2176 278.536 12.3567C279.232 12.4958 279.871 12.8384 280.373 13.341C281.04 14.0155 281.414 14.926 281.414 15.8747C281.414 16.8235 281.04 17.734 280.373 18.4085Z" fill="#263238"/>
<path d="M307.624 42.999H226.483V113.137H307.624V42.999Z" stroke="#263238" stroke-width="1.10311" stroke-linecap="round" stroke-linejoin="round" stroke-dasharray="4.41 4.41"/>
<path d="M413.533 42.999H320.15V47.932H413.533V42.999Z" fill="#263238"/>
<path d="M391.783 53.208H320.15V58.1261H391.783V53.208Z" fill="#263238"/>
<path d="M426.807 63.3721H320.15V68.3499H426.807V63.3721Z" fill="#263238"/>
<path d="M410.977 73.2842H320.15V78.262H410.977V73.2842Z" fill="#263238"/>
<path d="M320.677 242.021H275.009C269.618 242.021 265.248 246.392 265.248 251.783V278.585C265.248 283.976 269.618 288.347 275.009 288.347H320.677C326.068 288.347 330.438 283.976 330.438 278.585V251.783C330.438 246.392 326.068 242.021 320.677 242.021Z" fill="white" stroke="#263238" stroke-width="1.10311" stroke-linecap="round" stroke-linejoin="round"/>
<path d="M286.28 255.953L273.738 263.816L285.383 274.13" stroke="#263238" stroke-width="1.10311" stroke-linecap="round" stroke-linejoin="round"/>
<path d="M309.121 274.878L320.392 265.281L307.387 256.761" stroke="#263238" stroke-width="1.10311" stroke-linecap="round" stroke-linejoin="round"/>
<path d="M292.379 280.798L301.632 251.769" stroke="#263238" stroke-width="1.10311" stroke-linecap="round" stroke-linejoin="round"/>
<path d="M445.183 533.426C445.183 533.426 401.833 545.848 395.779 548.001C390.278 549.944 375.359 555.176 364.163 553.547C363.082 553.392 362.013 553.162 360.964 552.859C349.618 549.481 344.52 546.327 343.025 539.196C341.531 532.066 347.181 526.804 352.622 523.441C358.064 520.077 387.572 516.564 387.572 516.564L394.702 518.657L445.183 533.426Z" fill="#89B9F6"/>
<path d="M364.163 553.547C363.082 553.392 362.013 553.162 360.964 552.859C349.618 549.481 344.52 546.327 343.025 539.196C341.531 532.066 347.181 526.804 352.622 523.441C358.064 520.077 387.572 516.564 387.572 516.564L394.702 518.657C388.245 521.647 364.207 523.276 358.961 526.296C353.714 529.316 351.187 534.996 354.282 542.739C355.941 546.775 360.366 550.737 364.163 553.547Z" fill="white"/>
<path d="M438.666 535.19C438.666 535.19 406.108 543.621 393.192 549.018C380.277 554.414 355.657 556.776 346.852 545.654C338.048 534.533 345.836 524.936 354.61 522.798C363.385 520.66 381.129 517.297 390.816 518.657" stroke="#263238" stroke-width="1.10311" stroke-linecap="round" stroke-linejoin="round"/>
<path d="M364.805 552.963C364.805 552.963 348.242 543.874 353.743 531.138C357.809 521.751 379.903 523.784 390.845 518.656" stroke="#263238" stroke-width="1.10311" stroke-linecap="round" stroke-linejoin="round"/>
<path d="M577.223 555.565C576.775 560.049 575.205 564.25 570.721 566.896C567.731 568.66 563.485 569.706 557.401 569.646C542.199 569.452 513.617 558.585 513.617 558.585L486.86 543.786L500.777 521.766L504.589 515.787L514.425 517.999C514.425 517.999 522.571 522.619 530.763 526.296C538.955 529.973 558.851 530.78 565.862 536.416C572.873 542.052 577.985 548.18 577.223 555.565Z" fill="#89B9F6"/>
<path d="M577.224 555.565C576.775 560.049 575.206 564.25 570.721 566.896C572.013 562.487 571.749 557.769 569.974 553.532C566.984 546.82 557.252 540.901 544.457 539.914C531.661 538.927 521.869 532.948 516.742 530.272C512.736 528.194 504.29 523.65 500.777 521.766L504.589 515.787L514.425 517.999C514.425 517.999 522.572 522.619 530.764 526.296C538.955 529.973 558.852 530.78 565.863 536.416C572.874 542.052 577.986 548.18 577.224 555.565Z" fill="white"/>
<path d="M492.795 547.941C512.056 559.137 533.343 566.407 555.429 569.332C560.302 569.915 565.968 570.005 569.226 566.343C570.093 565.285 570.739 564.063 571.124 562.751C571.509 561.439 571.626 560.062 571.469 558.704C570.886 551.828 565.101 546.386 558.762 543.651C552.424 540.915 545.443 540.287 538.702 538.778C531.997 537.266 525.515 534.894 519.418 531.722C514.575 529.196 509.896 526.131 504.559 524.995C499.223 523.859 492.87 525.234 490.014 529.898" stroke="#263238" stroke-width="1.10311" stroke-linecap="round" stroke-linejoin="round"/>
<path d="M567.432 568.211C569.937 567.012 572.127 565.244 573.827 563.048C575.527 560.852 576.69 558.289 577.224 555.564C578.195 549.092 574.503 542.574 569.316 538.598C564.129 534.622 557.626 532.738 551.213 531.408C544.8 530.077 538.238 529.18 532.094 526.744C522.722 523.066 513.468 515.831 503.692 518.417" stroke="#263238" stroke-width="1.10311" stroke-linecap="round" stroke-linejoin="round"/>
<path d="M522.991 316.36L477.712 299.139L477.144 298.915C477.144 298.915 477.308 297.719 477.443 295.925C477.727 292.308 477.876 286.418 476.172 284.43C473.646 281.44 466.501 283.952 459.52 280.753C452.539 277.554 439.638 283.279 439.638 283.279C439.638 283.279 430.31 281.56 426.184 288.287C424.092 293.713 424.809 301.74 424.809 301.74L423.957 302.039C418.561 304.057 389.202 315.104 382.998 319.544C376.137 324.402 368.543 374.285 366.107 388.935C363.67 403.584 359.335 416.784 361.532 421.821C363.73 426.859 395.271 451.15 413.418 457.414C431.566 463.677 495.919 461.898 495.919 461.898C495.919 461.898 496.965 461.614 498.834 461.016C509.717 457.518 548.328 443.078 568.823 409.175C568.853 409.235 549.001 344.164 522.991 316.36ZM400.653 400.266C397.319 402.628 399.158 411.776 399.158 411.776L393.492 406.783L407.723 371.789L413.792 398.696C413.792 398.696 403.986 397.919 400.653 400.266ZM514.5 422.494C512.93 423.301 518.985 406.484 516.114 402.672C513.244 398.861 504.589 399.219 504.589 399.219L505.322 394.63L510.449 368.321L512.153 366.303C512.153 366.303 529.762 396.484 532.917 407.127C532.917 407.157 513.723 422.494 514.5 422.494Z" fill="#89B9F6"/>
<path d="M437.5 207.22L414.121 232.034C414.121 232.034 410.907 234.889 412.177 242.08C413.448 249.27 416.438 255.533 418.695 255.952C420.482 256.265 422.292 256.425 424.106 256.43C424.106 256.43 429.114 267.283 432.672 271.543C432.672 271.543 433.898 288.3 433.24 292.949C433.24 292.949 441.641 300.289 449.549 301.216C457.456 302.142 469.669 290.034 469.669 290.034L472.659 275.205C472.659 275.205 479.834 264.323 480.312 261.423C480.791 258.523 484.079 259.27 485.694 257.835C487.308 256.4 491.031 250.017 491.673 243.978C492.316 237.939 492.331 231.003 485.32 233.036C479.236 231.406 483.048 218.551 483.048 218.551L472.36 209.133L437.5 207.22Z" fill="white"/>
<path opacity="0.5" d="M477.711 299.138C477.359 300.062 476.954 300.965 476.501 301.844C472.644 309.109 455.842 322.966 455.842 322.966L450.759 307.345L447.979 322.966C442.373 320.515 425.272 305.701 425.272 305.701C425.272 305.701 424.689 304.31 423.987 302.143L424.839 301.844C424.839 301.844 424.121 293.757 426.214 288.39C430.31 281.664 439.668 283.383 439.668 283.383C439.668 283.383 452.568 277.657 459.549 280.856C466.53 284.055 473.675 281.574 476.202 284.534C478.728 287.493 477.173 298.974 477.173 298.974L477.711 299.138Z" fill="white"/>
<path opacity="0.2" d="M522.99 316.359L477.711 299.139L477.143 298.914C477.143 298.914 477.307 297.719 477.442 295.925L476.5 301.8L469.803 310.888C476.962 313.524 483.951 316.599 490.731 320.096C493.977 321.835 496.625 324.509 498.331 327.772C500.037 331.035 500.722 334.736 500.298 338.393L491.957 409.772L488.534 450.298L498.863 461.016C509.746 457.518 548.357 443.078 568.852 409.174C568.852 409.234 549 344.164 522.99 316.359ZM514.499 422.493C512.93 423.301 518.984 406.484 516.114 402.672C513.243 398.86 504.588 399.219 504.588 399.219L505.321 394.63L510.448 368.32L512.152 366.302C512.152 366.302 529.762 396.483 532.916 407.126C532.916 407.156 513.722 422.493 514.499 422.493Z" fill="#231F20"/>
<path opacity="0.2" d="M416.796 402.672L409.755 379.143C409.755 379.143 397.124 336.076 388.469 325.463L390.741 355.748C390.741 355.748 383.267 391.924 376.435 402.672C369.604 413.42 368.079 416.125 376.435 416.125C384.791 416.125 405.136 432.329 405.136 432.329L403.567 418.876L416.796 402.672ZM399.052 411.775L393.387 406.783L407.618 371.788L413.687 398.695C413.687 398.695 403.94 397.963 400.607 400.31C397.273 402.657 399.052 411.775 399.052 411.775Z" fill="#231F20"/>
<path d="M432.672 271.543C432.672 271.543 433.957 284.234 432.672 290.034" stroke="#263238" stroke-width="1.10311" stroke-linecap="round" stroke-linejoin="round"/>
<path d="M470.97 288.332C470.984 284.251 471.455 280.185 472.375 276.209" stroke="#263238" stroke-width="1.10311" stroke-linecap="round" stroke-linejoin="round"/>
<path d="M474.362 216.684C474.362 216.684 482.046 226.325 481.642 233.62C481.239 240.915 480.671 249.555 480.865 258.016C481.059 266.477 467.277 284.206 460.191 285.775C453.106 287.345 447.007 287.749 442.477 283.219C437.948 278.69 433.419 272.397 427.529 264.324C421.639 256.252 423.044 238.538 423.044 238.538" stroke="#263238" stroke-width="1.10311" stroke-linecap="round" stroke-linejoin="round"/>
<path d="M455.856 245.278C455.388 247.927 455.188 250.617 455.259 253.306C455.104 255.572 455.809 257.813 457.232 259.584C458.084 260.451 459.31 261.154 459.474 262.349C459.47 262.888 459.32 263.415 459.042 263.875C458.763 264.336 458.365 264.712 457.889 264.965C456.931 265.449 456.007 265.998 455.124 266.61" stroke="#263238" stroke-width="1.10311" stroke-linecap="round" stroke-linejoin="round"/>
<path d="M443.704 267.537C443.704 267.537 444.586 273.262 452.254 274.458" stroke="#263238" stroke-width="1.10311" stroke-linecap="round" stroke-linejoin="round"/>
<path d="M444.496 249.644C444.496 251.303 443.778 252.634 442.896 252.634C442.014 252.634 441.297 251.303 441.297 249.644C441.297 247.985 442.014 246.654 442.896 246.654C443.778 246.654 444.496 248 444.496 249.644Z" fill="#263238"/>
<path d="M467.382 250.361C467.382 252.02 466.664 253.35 465.782 253.35C464.9 253.35 464.183 252.005 464.183 250.361C464.183 248.716 464.9 247.371 465.782 247.371C466.664 247.371 467.382 248.702 467.382 250.361Z" fill="#263238"/>
<path d="M462.763 243.112C462.763 243.112 470.237 235.638 476.5 243.979" stroke="#263238" stroke-width="2.20621" stroke-linecap="round" stroke-linejoin="round"/>
<path d="M447.022 243.262C447.022 243.262 442.298 237.97 434.854 243.262" stroke="#263238" stroke-width="2.20621" stroke-linecap="round" stroke-linejoin="round"/>
<path d="M433.24 278.599C433.24 278.599 437.799 291.156 447.979 294.729C458.159 298.301 471.672 279.78 471.672 279.78L470.97 277.374C470.97 277.374 462.105 288.884 452.254 286.926C442.403 284.967 432.672 271.604 432.672 271.604L433.24 278.599Z" fill="#263238"/>
<path d="M424.106 255.952C424.106 255.952 418.037 258.089 416.422 253.365C414.808 248.642 409.277 236.19 414.12 232.034C418.964 227.878 422.85 237.52 422.85 237.52" stroke="#263238" stroke-width="1.10311" stroke-linecap="round" stroke-linejoin="round"/>
<path d="M480.85 258.524C480.85 258.524 486.486 259.66 488.1 254.937C489.715 250.213 495.245 237.761 490.402 233.605C485.559 229.45 481.672 239.091 481.672 239.091" stroke="#263238" stroke-width="1.10311" stroke-linecap="round" stroke-linejoin="round"/>
<path d="M422.85 249.645C424.958 249.312 426.861 248.19 428.172 246.506C428.972 245.027 429.48 243.408 429.667 241.737C430.222 238.558 430.502 235.337 430.504 232.11C430.438 230.849 430.554 229.586 430.847 228.358C431.296 227.123 431.988 225.989 432.881 225.025C434.988 222.543 437.544 220.45 439.562 217.879C440.644 216.666 441.467 215.245 441.981 213.703C442.495 212.161 442.69 210.53 442.552 208.91C447.177 212.723 452.581 215.477 458.384 216.977C464.187 218.478 470.248 218.689 476.141 217.595C486.83 215.502 497.069 206.13 495.828 194.35C495.594 192.375 494.747 190.523 493.407 189.054C492.066 187.585 490.3 186.572 488.354 186.159C483.077 184.843 478.339 187.653 473.555 189.462C464.84 192.751 456.305 187.1 447.5 186.159C440.026 185.336 430.713 186.278 426.796 193.767C426.796 193.767 413.343 195.352 407.363 206.474C401.384 217.595 412.7 232.977 412.7 232.977C412.7 232.977 417.185 227.476 423.059 238.598L422.85 249.645Z" fill="#263238"/>
<path d="M475.29 213.844C475.29 213.844 471.792 232.081 480.926 240.916C480.926 240.916 482.929 235.43 484.947 234.084C486.402 230.848 487.018 227.297 486.739 223.759C486.459 220.222 485.293 216.812 483.347 213.844C476.591 203.231 475.29 213.844 475.29 213.844Z" fill="#263238"/>
<path opacity="0.2" d="M491.942 193.096C491.14 195.584 489.781 197.857 487.968 199.74C486.154 201.623 483.935 203.068 481.479 203.963C468.802 209.135 456.5 203.41 443.793 202.289C433.434 201.362 421.999 210.72 421.266 221.363" stroke="white" stroke-width="1.10311" stroke-linecap="round" stroke-linejoin="round"/>
<path opacity="0.2" d="M413.448 218.551C413.603 214.351 414.951 210.282 417.333 206.819C419.716 203.357 423.034 200.644 426.902 198.998" stroke="white" stroke-width="1.10311" stroke-linecap="round" stroke-linejoin="round"/>
<path d="M429.742 288.331C435.317 294.14 442.043 298.723 449.489 301.784C449.489 301.784 464.662 297.375 472.375 286.836" stroke="#263238" stroke-width="1.10311" stroke-linecap="round" stroke-linejoin="round"/>
<path d="M445.247 261.817C451.985 258.726 454.943 250.758 451.852 244.019C448.761 237.28 440.792 234.323 434.054 237.414C427.315 240.505 424.358 248.474 427.449 255.212C430.54 261.951 438.508 264.908 445.247 261.817Z" stroke="#263238" stroke-width="1.10311" stroke-linecap="round" stroke-linejoin="round"/>
<path d="M471.26 262.998C478.618 262.094 483.851 255.397 482.947 248.038C482.044 240.68 475.346 235.447 467.988 236.35C460.629 237.254 455.396 243.952 456.3 251.31C457.204 258.668 463.901 263.901 471.26 262.998Z" stroke="#263238" stroke-width="1.10311" stroke-linecap="round" stroke-linejoin="round"/>
<path d="M432.672 283.324C431.312 283.681 430.038 284.309 428.926 285.169C427.813 286.029 426.886 287.105 426.199 288.332C423.822 292.518 425.257 305.687 425.257 305.687C425.257 305.687 437.53 317.825 447.979 322.953L451.058 305.627L455.842 322.953C455.842 322.953 472.016 311.517 476.501 301.845C476.501 301.845 477.995 290.559 476.501 286.897C476.161 285.88 475.514 284.993 474.649 284.358C473.785 283.724 472.745 283.373 471.672 283.354" stroke="#263238" stroke-width="1.10311" stroke-linecap="round" stroke-linejoin="round"/>
<path d="M413.448 399.233C413.448 399.233 408.649 367.094 402.266 353.984" stroke="#263238" stroke-width="1.10311" stroke-linecap="round" stroke-linejoin="round"/>
<path d="M388.47 325.463C392.186 330.745 395.504 336.296 398.396 342.071" stroke="#263238" stroke-width="1.10311" stroke-linecap="round" stroke-linejoin="round"/>
<path d="M514.499 349.455C515.788 344.082 517.554 338.834 519.776 333.774" stroke="#263238" stroke-width="1.10311" stroke-linecap="round" stroke-linejoin="round"/>
<path d="M504.589 399.234C504.589 399.234 508.042 377.2 512.168 359.053" stroke="#263238" stroke-width="1.10311" stroke-linecap="round" stroke-linejoin="round"/>
<path d="M510.449 368.291C513.786 363.866 518.48 360.653 523.813 359.143" stroke="#263238" stroke-width="1.10311" stroke-linecap="round" stroke-linejoin="round"/>
<path d="M477.158 298.914C477.158 298.914 505.007 310.051 522.99 316.374C522.99 316.374 545.114 337.167 568.837 409.234C568.837 409.234 547.102 445.798 505.755 457.517" stroke="#263238" stroke-width="1.10311" stroke-linecap="round" stroke-linejoin="round"/>
<path d="M512.93 423.793L532.917 407.155C532.917 407.155 543.485 399.128 554.472 404.614" stroke="#263238" stroke-width="1.10311" stroke-linecap="round" stroke-linejoin="round"/>
<path d="M512.168 366.302C512.168 366.302 528.686 390.713 532.916 407.156" stroke="#263238" stroke-width="1.10311" stroke-linecap="round" stroke-linejoin="round"/>
<path d="M399.277 412.702L393.432 407.156C393.432 407.156 384.762 405.661 374.926 412.224" stroke="#263238" stroke-width="1.10311" stroke-linecap="round" stroke-linejoin="round"/>
<path d="M393.432 407.156C393.432 407.156 400.697 383.239 407.857 370.996" stroke="#263238" stroke-width="1.10311" stroke-linecap="round" stroke-linejoin="round"/>
<path d="M424.839 301.844C424.839 301.844 384.762 316.882 380.83 321.277C376.899 325.672 361.965 409.757 361.562 419.384C361.218 427.994 392.43 447.322 407.902 455.469" stroke="#263238" stroke-width="1.10311" stroke-linecap="round" stroke-linejoin="round"/>
<path d="M501.18 471.106H409.995C409.428 471.106 408.884 470.881 408.483 470.48C408.082 470.079 407.857 469.536 407.857 468.969C407.857 468.402 408.082 467.858 408.483 467.457C408.884 467.056 409.428 466.831 409.995 466.831H501.18C501.747 466.831 502.291 467.056 502.692 467.457C503.093 467.858 503.318 468.402 503.318 468.969C503.318 469.536 503.093 470.079 502.692 470.48C502.291 470.881 501.747 471.106 501.18 471.106Z" fill="#263238"/>
<path d="M504.379 463.961L516.592 406.559C516.782 405.669 516.77 404.748 516.557 403.863C516.345 402.978 515.937 402.152 515.363 401.446C514.79 400.739 514.066 400.17 513.244 399.779C512.422 399.389 511.523 399.187 510.613 399.189H404.03C403.128 399.19 402.237 399.39 401.422 399.776C400.606 400.162 399.887 400.724 399.315 401.422C398.743 402.12 398.333 402.936 398.114 403.811C397.896 404.687 397.874 405.6 398.051 406.484L409.008 461.973C409.277 463.336 410.003 464.566 411.065 465.46C412.128 466.355 413.464 466.859 414.853 466.891L498.251 468.804C499.676 468.836 501.068 468.37 502.187 467.486C503.305 466.602 504.081 465.355 504.379 463.961Z" fill="white" stroke="#263238" stroke-width="1.10311" stroke-linecap="round" stroke-linejoin="round"/>
<path d="M465.484 432.314C465.481 433.995 464.979 435.638 464.043 437.035C463.107 438.432 461.777 439.52 460.223 440.161C458.668 440.803 456.959 440.969 455.31 440.639C453.661 440.309 452.146 439.498 450.958 438.308C449.77 437.118 448.962 435.602 448.635 433.953C448.308 432.303 448.477 430.594 449.121 429.04C449.766 427.487 450.856 426.159 452.254 425.225C453.653 424.291 455.296 423.793 456.978 423.793C458.096 423.793 459.204 424.013 460.237 424.442C461.269 424.87 462.208 425.498 462.998 426.29C463.788 427.081 464.414 428.02 464.841 429.054C465.267 430.088 465.486 431.195 465.484 432.314Z" fill="#263238"/>
<path d="M482.21 404.674H494.872" stroke="#263238" stroke-width="1.10311" stroke-linecap="round" stroke-linejoin="round"/>
<path d="M421.744 404.674H469.804" stroke="#263238" stroke-width="1.10311" stroke-linecap="round" stroke-linejoin="round"/>
<path d="M504.589 524.906L494.872 550.408C494.872 550.408 470.088 544.159 438.352 537.657C405.151 530.855 370.486 522.051 352.503 490.494C350.32 486.653 348.855 482.108 349.887 477.803C352.473 466.906 366.659 463.946 376.002 462.855C381.875 462.219 387.778 461.89 393.686 461.868C396.676 461.868 406.616 460.239 409.023 462.018C412.639 464.656 416.498 466.943 420.548 468.849C425.855 471.106 503.318 466.831 503.318 466.831C504.666 463.892 505.49 460.74 505.755 457.518C517.938 451.329 546.115 446.097 558.074 448.414C576.805 452.047 587.732 462.974 585.654 474.425C583.576 485.875 542.199 516.579 504.589 524.906Z" fill="#263238"/>
<path d="M504.589 524.905C504.589 524.905 481.015 518.656 461.761 505.651C442.508 492.646 427.47 477.548 400.637 480.672" stroke="white" stroke-width="1.10311" stroke-linecap="round" stroke-linejoin="round"/>
<path d="M457.352 502.587C469.52 499.089 478.444 491.211 488.205 483.662C498.501 475.399 509.558 468.131 521.226 461.957" stroke="white" stroke-width="1.10311" stroke-linecap="round" stroke-linejoin="round"/>
<path d="M453.061 251.768H456.634" stroke="#263238" stroke-width="1.10311" stroke-linecap="round" stroke-linejoin="round"/>
</g>
<defs>
<clipPath id="clip0_421_4">
<rect width="586" height="571" fill="white"/>
</clipPath>
</defs>
</svg>
